PathFileType	4	(X/Y/Z)	/Users/itak/Documents/Research/Walk-IL/dataset/trc/00318_00011.trc
DataRate	CameraRate	NumFrames	NumMarkers	Units	OrigDataRate	OrigDataStartFrame	OrigNumFrames
100.000000	100.000000	4	53	mm	100.000000	338	542
Frame#	Time	RPSI			LPSI			L3			STRN			T10			C7			CLAV			RBAK			LBAK			LSHO			LUPA			LAEL			LAOL			LWTS			LWPS			LFRA			LHPS			LHTS			RSHO			RUPA			RAEL			RAOL			RWTS			RWPS			RFRA			RIFD			RHTS			RHPS			RBHD			LFHD			RFHD			LBHD			LHIP			RHIP			RASI			LASI			LKNE			LTHI			LANK			LTIP			LTOE			LMT1			LMT5			LHEE			RKNE			RTHI			RANK			RTIP			RTOE			RMT1			RMT5			RHEE			LIFD			
		X1	Y1	Z1	X2	Y2	Z2	X3	Y3	Z3	X4	Y4	Z4	X5	Y5	Z5	X6	Y6	Z6	X7	Y7	Z7	X8	Y8	Z8	X9	Y9	Z9	X10	Y10	Z10	X11	Y11	Z11	X12	Y12	Z12	X13	Y13	Z13	X14	Y14	Z14	X15	Y15	Z15	X16	Y16	Z16	X17	Y17	Z17	X18	Y18	Z18	X19	Y19	Z19	X20	Y20	Z20	X21	Y21	Z21	X22	Y22	Z22	X23	Y23	Z23	X24	Y24	Z24	X25	Y25	Z25	X26	Y26	Z26	X27	Y27	Z27	X28	Y28	Z28	X29	Y29	Z29	X30	Y30	Z30	X31	Y31	Z31	X32	Y32	Z32	X33	Y33	Z33	X34	Y34	Z34	X35	Y35	Z35	X36	Y36	Z36	X37	Y37	Z37	X38	Y38	Z38	X39	Y39	Z39	X40	Y40	Z40	X41	Y41	Z41	X42	Y42	Z42	X43	Y43	Z43	X44	Y44	Z44	X45	Y45	Z45	X46	Y46	Z46	X47	Y47	Z47	X48	Y48	Z48	X49	Y49	Z49	X50	Y50	Z50	X51	Y51	Z51	X52	Y52	Z52	X53	Y53	Z53	

339	3.38	-86.93589019775391	952.4976196289062	90.25438690185547	-79.82435607910156	949.3065795898438	-39.33347702026367	-89.44028472900391	1015.023010253906	34.30895233154297	144.8788146972656	1193.40087890625	15.46997165679932	-99.80259704589844	1134.2021484375	34.69288635253906	-57.78898620605469	1381.747314453125	8.954909324645996	97.96819305419922	1315.707153320312	8.633259773254395	-101.2239532470703	1244.790161132812	87.79615783691406	-72.92086791992188	1342.308837890625	-87.32769012451172	8.928789138793945	1350.934814453125	-149.3789825439453	-48.29372024536133	1243.529418945312	-208.8230743408203	-109.2540054321289	1050.152954101562	-209.9924621582031	-150.966064453125	1056.1953125	-136.7414855957031	-122.0688705444336	790.6398315429688	-186.6065216064453	-175.7225799560547	798.9661254882812	-229.7667541503906	-140.5798797607422	950.4125366210938	-218.3880615234375	-212.0993804931641	738.4036865234375	-218.6445617675781	-159.1984405517578	714.4251098632812	-196.5554962158203	9.478593826293945	1372.898315429688	167.2273254394531	13.03596305847168	1314.332153320312	237.9801483154297	132.4945068359375	1079.59423828125	300.2066650390625	88.51168060302734	1037.703125	226.0706024169922	352.9407653808594	973.4607543945312	234.35009765625	344.8138427734375	938.1026000976562	301.9477233886719	192.2875823974609	1037.822021484375	308.06201171875	486.85595703125	861.174072265625	239.5126953125	444.7044677734375	922.260986328125	241.7217559814453	413.0489501953125	887.7244262695312	292.2290649414062	-22.25212097167969	1576.131958007812	82.85131072998047	141.5261383056641	1601.848266601562	-43.39279174804688	135.7436828613281	1605.003784179688	57.45761489868164	-40.88429260253906	1564.648559570312	-60.91598129272461	18.4996509552002	896.2575073242188	-136.2690277099609	-17.37301254272461	897.3862915039062	205.9363555908203	90.94856262207031	924.697265625	173.9330291748047	128.608154296875	925.8036499023438	-62.36161041259766	210.6313934326172	464.6602783203125	-110.4891128540039	154.319580078125	590.3658447265625	-130.5365600585938	323.4773559570312	47.07487106323242	-96.55272674560547	267.2315063476562	256.4727783203125	-120.2126235961914	510.7478637695312	138.1444854736328	-48.19614410400391	455.6739501953125	102.3268051147461	-3.265907049179077	440.0516357421875	92.10739135742188	-115.2104873657227	294.4895324707031	37.2777214050293	-27.39387130737305	-38.74213409423828	438.417724609375	174.0837860107422	31.96321678161621	688.600341796875	207.0415496826172	-211.4500732421875	59.02580642700195	127.5617370605469	-61.60211563110352	318.0498046875	152.5845794677734	-20.58216857910156	38.3371696472168	78.07823181152344	-76.80984497070312	31.33048439025879	34.87087249755859	-114.0403900146484	38.54623794555664	146.4630584716797	-261.5111999511719	64.55520629882812	79.70473480224609	-198.555419921875	640.550048828125	-177.6536560058594	
340	3.39	-77.13023376464844	951.0324096679688	88.58869934082031	-69.84307098388672	947.2688598632812	-40.99131774902344	-79.10836791992188	1012.855041503906	32.81644439697266	154.7828216552734	1191.430053710938	14.74039173126221	-89.84822845458984	1132.212280273438	33.06989288330078	-47.96715927124023	1379.785400390625	7.747947692871094	107.9275512695312	1313.822875976562	7.769421100616455	-91.47435760498047	1242.657592773438	86.20884704589844	-62.9293212890625	1340.283813476562	-88.65667724609375	19.07481956481934	1348.887817382812	-150.5381011962891	-37.66012954711914	1240.871826171875	-209.8486328125	-97.822509765625	1047.347778320312	-210.7095031738281	-139.4196014404297	1053.137084960938	-137.3622741699219	-110.7830276489258	787.9215698242188	-187.0830230712891	-164.3081359863281	796.2986450195312	-230.3779449462891	-129.094970703125	947.6240234375	-219.0343475341797	-200.9084777832031	735.86376953125	-219.1724090576172	-147.9352874755859	712.92724609375	-196.625	18.94527053833008	1370.656616210938	166.2550354003906	22.22348403930664	1311.8515625	236.9135589599609	141.5244750976562	1076.961547851562	298.8394775390625	97.59752655029297	1035.14306640625	224.6468353271484	361.9470520019531	971.0440063476562	232.6309814453125	353.9490051269531	935.5885620117188	300.2243041992188	201.3048858642578	1035.149169921875	306.7195434570312	495.8855895996094	858.7583618164062	237.4979553222656	453.7954406738281	919.8941650390625	239.7969512939453	422.1898803710938	885.3526611328125	290.4001770019531	-12.95156860351562	1574.233032226562	81.95731353759766	151.0185241699219	1600.377563476562	-43.9431037902832	145.04052734375	1603.422485351562	56.87481689453125	-31.26574897766113	1562.850463867188	-61.86079025268555	28.74078178405762	893.7944946289062	-137.3602142333984	-8.005080223083496	896.215087890625	204.6576843261719	100.5276184082031	922.98388671875	172.9290466308594	138.6864776611328	923.4431762695312	-63.37439346313477	221.4525756835938	463.1553344726562	-111.2760620117188	165.2509155273438	588.4686889648438	-131.4754028320312	337.1039733886719	46.45171737670898	-96.18525695800781	279.2436218261719	255.4236145019531	-120.459342956543	523.9432373046875	138.6513214111328	-48.72418212890625	469.2994995117188	102.8978652954102	-3.497236728668213	453.4144897460938	91.85784912109375	-115.4087600708008	308.3076171875	37.00344848632812	-26.89934539794922	-33.34368896484375	437.9757080078125	173.9626159667969	39.66538619995117	687.367431640625	206.4353637695312	-210.8440093994141	60.40725708007812	127.6419372558594	-57.61283874511719	317.6325073242188	152.5042419433594	-20.42302131652832	38.25687408447266	78.10249328613281	-76.6700439453125	31.53105545043945	34.92169952392578	-113.7424545288086	38.718994140625	146.5372924804688	-260.9589233398438	66.77494812011719	79.81802368164062	-187.6773681640625	637.9924926757812	-178.2039184570312	
341	3.4	-67.26766204833984	949.618408203125	86.86247253417969	-59.85690689086914	945.301513671875	-42.68719100952148	-68.81243896484375	1010.813537597656	31.27017021179199	164.7863464355469	1189.558471679688	13.90586948394775	-79.81044769287109	1130.337524414062	31.36624336242676	-38.05566787719727	1377.929077148438	6.462034225463867	117.9716873168945	1312.024047851562	6.815562725067139	-81.65779876708984	1240.636108398438	84.51059722900391	-52.85906600952148	1338.362670898438	-90.07094573974609	29.30579948425293	1346.934448242188	-151.7931365966797	-26.83319854736328	1238.240600585938	-210.97705078125	-85.99876403808594	1044.493041992188	-211.5836334228516	-127.5592041015625	1050.004638671875	-138.1700439453125	-98.78417205810547	785.0599365234375	-187.6439666748047	-152.1819610595703	793.4946899414062	-231.0702362060547	-117.1032104492188	944.7413940429688	-219.7858276367188	-188.91357421875	733.155029296875	-219.8251037597656	-135.8731384277344	711.2681274414062	-196.8066711425781	28.52520370483398	1368.486572265625	165.2133178710938	31.48424530029297	1309.424072265625	235.7615814208984	150.3310699462891	1074.222900390625	297.408935546875	106.4191055297852	1032.54638671875	223.1414489746094	370.5478210449219	968.156005859375	230.9075622558594	362.6116638183594	932.6344604492188	298.4865417480469	209.9910430908203	1032.274291992188	305.3511047363281	504.3000183105469	855.6300048828125	235.5078582763672	462.3880310058594	916.8785400390625	237.9031066894531	430.7572326660156	882.4644165039062	288.6355285644531	-3.617662668228149	1572.3994140625	81.00212860107422	160.5583343505859	1599.0322265625	-44.56550598144531	154.3603363037109	1601.944946289062	56.22870254516602	-21.60070610046387	1561.115234375	-62.86647415161133	38.98453903198242	891.59716796875	-138.4972686767578	1.451586008071899	895.1100463867188	203.2744293212891	110.1959686279297	921.3728637695312	171.8329620361328	148.8265686035156	921.3389892578125	-64.49051666259766	232.8719787597656	462.0978088378906	-111.9840087890625	177.1654052734375	587.3557739257812	-132.3752746582031	347.6557312011719	45.35193252563477	-96.07900238037109	290.2059936523438	254.0742492675781	-120.704719543457	534.8073120117188	136.7725524902344	-49.42588424682617	480.2790222167969	101.3204116821289	-3.898941516876221	464.00537109375	90.07637786865234	-115.8194274902344	319.0180969238281	36.28805923461914	-26.67999649047852	-27.54708480834961	437.5934448242188	173.7565155029297	47.60940551757812	686.2359008789062	205.7561950683594	-210.1606597900391	62.04494857788086	127.7554473876953	-53.31735992431641	317.2412719726562	152.3078765869141	-20.20966720581055	38.18196105957031	78.12981414794922	-76.48224639892578	31.79602813720703	35.00728988647461	-113.3542633056641	38.99861145019531	146.6439971923828	-260.3038024902344	69.31298828125	79.98285675048828	-175.8861389160156	635.27392578125	-178.8907928466797	
342	3.41	-57.32067489624023	948.2643432617188	85.07882690429688	-49.79153823852539	943.4486694335938	-44.40077972412109	-58.53719711303711	1008.918334960938	29.68457984924316	174.9033660888672	1187.831665039062	12.94790077209473	-69.67234039306641	1128.583374023438	29.60239601135254	-28.06195449829102	1376.19482421875	5.091827869415283	128.0968017578125	1310.347290039062	5.760348796844482	-71.78181457519531	1238.749145507812	82.71141815185547	-42.71095275878906	1336.572143554688	-91.57363891601562	39.61166000366211	1345.113525390625	-153.147216796875	-15.82772159576416	1235.692504882812	-212.2097625732422	-73.78487396240234	1041.635375976562	-212.6244812011719	-115.3869934082031	1046.854248046875	-139.1769104003906	-86.04705810546875	782.09521484375	-188.2916717529297	-139.3195190429688	790.5977783203125	-231.8451995849609	-104.5852737426758	941.8095703125	-220.6449279785156	-176.0693511962891	730.31005859375	-220.6079406738281	-122.9617004394531	709.4673461914062	-197.1124572753906	38.20549011230469	1366.41064453125	164.0865325927734	40.82050704956055	1307.08740234375	234.5155792236328	158.9017639160156	1071.407104492188	295.9136352539062	114.9710235595703	1029.951049804688	221.5544586181641	378.7411499023438	964.8286743164062	229.1934509277344	370.7862548828125	929.2625732421875	296.748779296875	218.3423767089844	1029.225219726562	303.9527282714844	512.1065673828125	851.8385620117188	233.5484466552734	470.4669189453125	913.24609375	236.0644683837891	438.7455749511719	879.0576171875	286.921142578125	5.761792182922363	1570.650634765625	79.99232482910156	170.1489562988281	1597.83251953125	-45.25864410400391	163.7060241699219	1600.587280273438	55.52526092529297	-11.88954830169678	1559.46240234375	-63.93305206298828	49.29435729980469	889.7260131835938	-139.6752471923828	11.01802253723145	894.053955078125	201.7916870117188	119.9827499389648	919.8726806640625	170.6588439941406	159.0924530029297	919.5426025390625	-65.68353271484375	244.7733764648438	461.4415588378906	-112.5985488891602	189.8871307373047	586.9681396484375	-133.2558898925781	355.4072265625	43.89038848876953	-96.19504547119141	300.2181091308594	252.4501342773438	-120.925048828125	543.5792846679688	132.7000274658203	-50.24900817871094	488.8739318847656	97.75064086914062	-4.434149742126465	472.0792541503906	86.93967437744141	-116.3929672241211	326.8993530273438	35.21094512939453	-26.69657707214355	-21.2703742980957	437.2479248046875	173.4344482421875	55.83457946777344	685.1893920898438	204.9839019775391	-209.3793029785156	63.96627044677734	127.8986053466797	-48.65956878662109	316.8816833496094	151.9885406494141	-19.94607734680176	38.11410522460938	78.15484619140625	-76.23452758789062	32.12384033203125	35.12316513061523	-112.8622894287109	39.4026985168457	146.7860412597656	-259.5161437988281	72.20113372802734	80.19361877441406	-163.1431427001953	632.4352416992188	-179.6993255615234	
